# MagicaVoxel @ Ephtracy

# group
g crossyroads_chicken

# material
mtllib crossyroads_chicken.mtl
usemtl palette

# normals
vn -1 0 0
vn 1 0 0
vn 0 0 1
vn 0 0 -1
vn 0 -1 0
vn 0 1 0

# texcoords
vt 0.146484 0.5
vt 0.150391 0.5
vt 0.208984 0.5
vt 0.912109 0.5
vt 0.994141 0.5

# verts
v -4 0 2
v -4 0 -2
v -4 1 2
v -4 1 -2
v -4 6 3
v -4 6 -2
v -4 9 3
v -4 9 -2
v -3 1 1
v -3 1 -0
v -3 4 4
v -3 4 1
v -3 4 -0
v -3 4 -3
v -3 6 3
v -3 6 -2
v -3 9 3
v -3 9 -2
v -3 11 -0
v -3 11 -1
v -3 12 -0
v -3 12 -1
v -3 14 4
v -3 14 -3
v -2 0 -1
v -2 0 -2
v -2 1 -1
v -2 1 -2
v -1 6 5
v -1 6 4
v -1 7 6
v -1 7 5
v -1 7 -3
v -1 7 -4
v -1 8 6
v -1 8 4
v -1 9 -3
v -1 9 -4
v -1 9 -5
v -1 11 -3
v -1 11 -5
v -1 14 4
v -1 14 -3
v -1 15 4
v -1 15 -3
v 1 0 2
v 1 0 -2
v 1 1 2
v 1 1 -2
v 2 1 1
v 2 1 -0
v 2 4 1
v 2 4 -0
v 3 0 -1
v 3 0 -2
v 3 1 -1
v 3 1 -2
v -3 0 -1
v -3 0 -2
v -3 1 -1
v -3 1 -2
v -2 1 1
v -2 1 -0
v -2 4 1
v -2 4 -0
v -1 0 2
v -1 0 -2
v -1 1 2
v -1 1 -2
v 1 6 5
v 1 6 4
v 1 7 6
v 1 7 5
v 1 7 -3
v 1 7 -4
v 1 8 6
v 1 8 4
v 1 9 -3
v 1 9 -4
v 1 9 -5
v 1 11 -3
v 1 11 -5
v 1 14 4
v 1 14 -3
v 1 15 4
v 1 15 -3
v 2 0 -1
v 2 0 -2
v 2 1 -1
v 2 1 -2
v 3 1 1
v 3 1 -0
v 3 4 4
v 3 4 1
v 3 4 -0
v 3 4 -3
v 3 6 3
v 3 6 -2
v 3 9 3
v 3 9 -2
v 3 11 -0
v 3 11 -1
v 3 12 -0
v 3 12 -1
v 3 14 4
v 3 14 -3
v 4 0 2
v 4 0 -2
v 4 1 2
v 4 1 -2
v 4 6 3
v 4 6 -2
v 4 9 3
v 4 9 -2
v -1 7 6
v -1 8 6
v 1 7 6
v 1 8 6
v -1 6 5
v -1 7 5
v 1 6 5
v 1 7 5
v -3 4 4
v -3 14 4
v -1 6 4
v -1 8 4
v -1 14 4
v -1 15 4
v 1 6 4
v 1 8 4
v 1 14 4
v 1 15 4
v 3 4 4
v 3 14 4
v -4 6 3
v -4 9 3
v -3 6 3
v -3 9 3
v 3 6 3
v 3 9 3
v 4 6 3
v 4 9 3
v -4 0 2
v -4 1 2
v -1 0 2
v -1 1 2
v 1 0 2
v 1 1 2
v 4 0 2
v 4 1 2
v -3 1 1
v -3 4 1
v -2 1 1
v -2 4 1
v 2 1 1
v 2 4 1
v 3 1 1
v 3 4 1
v -3 1 -0
v -3 4 -0
v -2 1 -0
v -2 4 -0
v 2 1 -0
v 2 4 -0
v 3 1 -0
v 3 4 -0
v -3 0 -1
v -3 1 -1
v -2 0 -1
v -2 1 -1
v 2 0 -1
v 2 1 -1
v 3 0 -1
v 3 1 -1
v -4 0 -2
v -4 1 -2
v -4 6 -2
v -4 9 -2
v -3 0 -2
v -3 1 -2
v -3 6 -2
v -3 9 -2
v -2 0 -2
v -2 1 -2
v -1 0 -2
v -1 1 -2
v 1 0 -2
v 1 1 -2
v 2 0 -2
v 2 1 -2
v 3 0 -2
v 3 1 -2
v 3 6 -2
v 3 9 -2
v 4 0 -2
v 4 1 -2
v 4 6 -2
v 4 9 -2
v -3 4 -3
v -3 14 -3
v -1 7 -3
v -1 9 -3
v -1 11 -3
v -1 14 -3
v -1 15 -3
v 1 7 -3
v 1 9 -3
v 1 11 -3
v 1 14 -3
v 1 15 -3
v 3 4 -3
v 3 14 -3
v -1 7 -4
v -1 9 -4
v 1 7 -4
v 1 9 -4
v -1 9 -5
v -1 11 -5
v 1 9 -5
v 1 11 -5
v -4 0 2
v -1 0 2
v 1 0 2
v 4 0 2
v -3 0 -1
v -2 0 -1
v 2 0 -1
v 3 0 -1
v -4 0 -2
v -3 0 -2
v -2 0 -2
v -1 0 -2
v 1 0 -2
v 2 0 -2
v 3 0 -2
v 4 0 -2
v -3 4 4
v 3 4 4
v -3 4 1
v -2 4 1
v 2 4 1
v 3 4 1
v -3 4 -0
v -2 4 -0
v 2 4 -0
v 3 4 -0
v -3 4 -3
v 3 4 -3
v -1 6 5
v 1 6 5
v -1 6 4
v 1 6 4
v -4 6 3
v -3 6 3
v 3 6 3
v 4 6 3
v -4 6 -2
v -3 6 -2
v 3 6 -2
v 4 6 -2
v -1 7 6
v 1 7 6
v -1 7 5
v 1 7 5
v -1 7 -3
v 1 7 -3
v -1 7 -4
v 1 7 -4
v -1 9 -4
v 1 9 -4
v -1 9 -5
v 1 9 -5
v -4 1 2
v -1 1 2
v 1 1 2
v 4 1 2
v -3 1 1
v -2 1 1
v 2 1 1
v 3 1 1
v -3 1 -0
v -2 1 -0
v 2 1 -0
v 3 1 -0
v -3 1 -1
v -2 1 -1
v 2 1 -1
v 3 1 -1
v -4 1 -2
v -3 1 -2
v -2 1 -2
v -1 1 -2
v 1 1 -2
v 2 1 -2
v 3 1 -2
v 4 1 -2
v -1 8 6
v 1 8 6
v -1 8 4
v 1 8 4
v -4 9 3
v -3 9 3
v 3 9 3
v 4 9 3
v -4 9 -2
v -3 9 -2
v 3 9 -2
v 4 9 -2
v -1 11 -3
v 1 11 -3
v -1 11 -5
v 1 11 -5
v -3 14 4
v -1 14 4
v 1 14 4
v 3 14 4
v -3 14 -3
v -1 14 -3
v 1 14 -3
v 3 14 -3
v -1 15 4
v 1 15 4
v -1 15 -3
v 1 15 -3

# faces
f 3/2/1 2/2/1 1/2/1
f 4/2/1 2/2/1 3/2/1
f 7/4/1 6/4/1 5/4/1
f 8/4/1 6/4/1 7/4/1
f 12/2/1 10/2/1 9/2/1
f 13/2/1 10/2/1 12/2/1
f 15/4/1 12/4/1 11/4/1
f 15/4/1 14/4/1 13/4/1
f 15/4/1 13/4/1 12/4/1
f 16/4/1 14/4/1 15/4/1
f 17/4/1 15/4/1 11/4/1
f 18/4/1 14/4/1 16/4/1
f 19/4/1 18/4/1 17/4/1
f 20/4/1 18/4/1 19/4/1
f 21/4/1 19/4/1 17/4/1
f 21/5/1 20/5/1 19/5/1
f 22/4/1 18/4/1 20/4/1
f 22/5/1 20/5/1 21/5/1
f 23/4/1 17/4/1 11/4/1
f 23/4/1 21/4/1 17/4/1
f 23/4/1 22/4/1 21/4/1
f 24/4/1 18/4/1 22/4/1
f 24/4/1 22/4/1 23/4/1
f 24/4/1 14/4/1 18/4/1
f 27/2/1 26/2/1 25/2/1
f 28/2/1 26/2/1 27/2/1
f 32/4/1 30/4/1 29/4/1
f 35/4/1 32/4/1 31/4/1
f 36/4/1 30/4/1 32/4/1
f 36/4/1 32/4/1 35/4/1
f 37/1/1 34/1/1 33/1/1
f 38/1/1 34/1/1 37/1/1
f 40/3/1 38/3/1 37/3/1
f 40/3/1 39/3/1 38/3/1
f 41/3/1 39/3/1 40/3/1
f 44/1/1 43/1/1 42/1/1
f 45/1/1 43/1/1 44/1/1
f 48/2/1 47/2/1 46/2/1
f 49/2/1 47/2/1 48/2/1
f 52/2/1 51/2/1 50/2/1
f 53/2/1 51/2/1 52/2/1
f 56/2/1 55/2/1 54/2/1
f 57/2/1 55/2/1 56/2/1
f 58/2/2 59/2/2 60/2/2
f 60/2/2 59/2/2 61/2/2
f 62/2/2 63/2/2 64/2/2
f 64/2/2 63/2/2 65/2/2
f 66/2/2 67/2/2 68/2/2
f 68/2/2 67/2/2 69/2/2
f 70/4/2 71/4/2 73/4/2
f 72/4/2 73/4/2 76/4/2
f 73/4/2 71/4/2 77/4/2
f 76/4/2 73/4/2 77/4/2
f 74/1/2 75/1/2 78/1/2
f 78/1/2 75/1/2 79/1/2
f 78/3/2 79/3/2 81/3/2
f 79/3/2 80/3/2 81/3/2
f 81/3/2 80/3/2 82/3/2
f 83/1/2 84/1/2 85/1/2
f 85/1/2 84/1/2 86/1/2
f 87/2/2 88/2/2 89/2/2
f 89/2/2 88/2/2 90/2/2
f 91/2/2 92/2/2 94/2/2
f 94/2/2 92/2/2 95/2/2
f 93/4/2 94/4/2 97/4/2
f 95/4/2 96/4/2 97/4/2
f 94/4/2 95/4/2 97/4/2
f 97/4/2 96/4/2 98/4/2
f 93/4/2 97/4/2 99/4/2
f 98/4/2 96/4/2 100/4/2
f 99/4/2 100/4/2 101/4/2
f 101/4/2 100/4/2 102/4/2
f 99/4/2 101/4/2 103/4/2
f 101/5/2 102/5/2 103/5/2
f 102/4/2 100/4/2 104/4/2
f 103/5/2 102/5/2 104/5/2
f 93/4/2 99/4/2 105/4/2
f 99/4/2 103/4/2 105/4/2
f 103/4/2 104/4/2 105/4/2
f 104/4/2 100/4/2 106/4/2
f 105/4/2 104/4/2 106/4/2
f 100/4/2 96/4/2 106/4/2
f 107/2/2 108/2/2 109/2/2
f 109/2/2 108/2/2 110/2/2
f 111/4/2 112/4/2 113/4/2
f 113/4/2 112/4/2 114/4/2
f 117/4/3 116/4/3 115/4/3
f 118/4/3 116/4/3 117/4/3
f 121/4/3 120/4/3 119/4/3
f 122/4/3 120/4/3 121/4/3
f 125/4/3 124/4/3 123/4/3
f 126/4/3 124/4/3 125/4/3
f 127/4/3 124/4/3 126/4/3
f 129/4/3 125/4/3 123/4/3
f 130/4/3 127/4/3 126/4/3
f 131/1/3 128/1/3 127/1/3
f 131/4/3 127/4/3 130/4/3
f 132/1/3 128/1/3 131/1/3
f 133/4/3 130/4/3 129/4/3
f 133/4/3 129/4/3 123/4/3
f 133/4/3 131/4/3 130/4/3
f 134/4/3 131/4/3 133/4/3
f 137/4/3 136/4/3 135/4/3
f 138/4/3 136/4/3 137/4/3
f 141/4/3 140/4/3 139/4/3
f 142/4/3 140/4/3 141/4/3
f 145/2/3 144/2/3 143/2/3
f 146/2/3 144/2/3 145/2/3
f 149/2/3 148/2/3 147/2/3
f 150/2/3 148/2/3 149/2/3
f 153/2/3 152/2/3 151/2/3
f 154/2/3 152/2/3 153/2/3
f 157/2/3 156/2/3 155/2/3
f 158/2/3 156/2/3 157/2/3
f 159/2/4 160/2/4 161/2/4
f 161/2/4 160/2/4 162/2/4
f 163/2/4 164/2/4 165/2/4
f 165/2/4 164/2/4 166/2/4
f 167/2/4 168/2/4 169/2/4
f 169/2/4 168/2/4 170/2/4
f 171/2/4 172/2/4 173/2/4
f 173/2/4 172/2/4 174/2/4
f 175/2/4 176/2/4 179/2/4
f 179/2/4 176/2/4 180/2/4
f 177/4/4 178/4/4 181/4/4
f 181/4/4 178/4/4 182/4/4
f 183/2/4 184/2/4 185/2/4
f 185/2/4 184/2/4 186/2/4
f 187/2/4 188/2/4 189/2/4
f 189/2/4 188/2/4 190/2/4
f 191/2/4 192/2/4 195/2/4
f 195/2/4 192/2/4 196/2/4
f 193/4/4 194/4/4 197/4/4
f 197/4/4 194/4/4 198/4/4
f 199/4/4 200/4/4 201/4/4
f 201/4/4 200/4/4 202/4/4
f 202/4/4 200/4/4 203/4/4
f 203/4/4 200/4/4 204/4/4
f 199/4/4 201/4/4 206/4/4
f 203/4/4 204/4/4 208/4/4
f 204/1/4 205/1/4 209/1/4
f 208/4/4 204/4/4 209/4/4
f 209/1/4 205/1/4 210/1/4
f 207/4/4 208/4/4 211/4/4
f 206/4/4 207/4/4 211/4/4
f 208/4/4 209/4/4 211/4/4
f 199/4/4 206/4/4 211/4/4
f 211/4/4 209/4/4 212/4/4
f 213/1/4 214/1/4 215/1/4
f 215/1/4 214/1/4 216/1/4
f 217/3/4 218/3/4 219/3/4
f 219/3/4 218/3/4 220/3/4
f 225/2/5 222/2/5 221/2/5
f 226/2/5 222/2/5 225/2/5
f 227/2/5 224/2/5 223/2/5
f 228/2/5 224/2/5 227/2/5
f 229/2/5 225/2/5 221/2/5
f 230/2/5 225/2/5 229/2/5
f 231/2/5 222/2/5 226/2/5
f 232/2/5 222/2/5 231/2/5
f 233/2/5 227/2/5 223/2/5
f 234/2/5 227/2/5 233/2/5
f 235/2/5 224/2/5 228/2/5
f 236/2/5 224/2/5 235/2/5
f 239/4/5 238/4/5 237/4/5
f 240/4/5 238/4/5 239/4/5
f 241/4/5 238/4/5 240/4/5
f 242/4/5 238/4/5 241/4/5
f 244/4/5 241/4/5 240/4/5
f 245/4/5 241/4/5 244/4/5
f 247/4/5 244/4/5 243/4/5
f 247/4/5 246/4/5 245/4/5
f 247/4/5 245/4/5 244/4/5
f 248/4/5 246/4/5 247/4/5
f 251/4/5 250/4/5 249/4/5
f 252/4/5 250/4/5 251/4/5
f 257/4/5 254/4/5 253/4/5
f 258/4/5 254/4/5 257/4/5
f 259/4/5 256/4/5 255/4/5
f 260/4/5 256/4/5 259/4/5
f 263/4/5 262/4/5 261/4/5
f 264/4/5 262/4/5 263/4/5
f 267/1/5 266/1/5 265/1/5
f 268/1/5 266/1/5 267/1/5
f 271/3/5 270/3/5 269/3/5
f 272/3/5 270/3/5 271/3/5
f 273/2/6 274/2/6 277/2/6
f 277/2/6 274/2/6 278/2/6
f 275/2/6 276/2/6 279/2/6
f 279/2/6 276/2/6 280/2/6
f 273/2/6 277/2/6 281/2/6
f 278/2/6 274/2/6 282/2/6
f 275/2/6 279/2/6 283/2/6
f 280/2/6 276/2/6 284/2/6
f 273/2/6 281/2/6 285/2/6
f 281/2/6 282/2/6 285/2/6
f 282/2/6 274/2/6 286/2/6
f 285/2/6 282/2/6 286/2/6
f 283/2/6 284/2/6 287/2/6
f 275/2/6 283/2/6 287/2/6
f 284/2/6 276/2/6 288/2/6
f 287/2/6 284/2/6 288/2/6
f 273/2/6 285/2/6 289/2/6
f 289/2/6 285/2/6 290/2/6
f 286/2/6 274/2/6 291/2/6
f 291/2/6 274/2/6 292/2/6
f 275/2/6 287/2/6 293/2/6
f 293/2/6 287/2/6 294/2/6
f 288/2/6 276/2/6 295/2/6
f 295/2/6 276/2/6 296/2/6
f 297/4/6 298/4/6 299/4/6
f 299/4/6 298/4/6 300/4/6
f 301/4/6 302/4/6 305/4/6
f 305/4/6 302/4/6 306/4/6
f 303/4/6 304/4/6 307/4/6
f 307/4/6 304/4/6 308/4/6
f 309/3/6 310/3/6 311/3/6
f 311/3/6 310/3/6 312/3/6
f 313/4/6 314/4/6 317/4/6
f 317/4/6 314/4/6 318/4/6
f 315/4/6 316/4/6 319/4/6
f 319/4/6 316/4/6 320/4/6
f 321/1/6 322/1/6 323/1/6
f 323/1/6 322/1/6 324/1/6
